<?xml version="1.0" encoding="UTF-8"?>
<svg width="154px" height="40px" viewBox="0 0 154 40" version="1.1" xmlns="http://www.w3.org/2000/svg" xmlns:xlink="http://www.w3.org/1999/xlink">
    <!-- Generator: Sketch 53.2 (72643) - https://sketchapp.com -->
    <title>Rectangle</title>
    <desc>Created with Sketch.</desc>
    <g id="消费者资产" stroke="none" stroke-width="1" fill="none" fill-rule="evenodd">
        <g id="消费者分布（4A来源下钻）" transform="translate(-364.000000, -25.000000)" fill="#FFFFFF">
            <g id="头部">
                <g id="Group-4" transform="translate(364.000000, 25.000000)">
                    <g id="Group-7" transform="translate(1.000000, 0.000000)">
                        <g id="Group-6" transform="translate(78.048780, 8.919861)" fill-rule="nonzero">
                            <path d="M13.2938314,4.08332032 C13.8028614,2.91665737 14.1704942,1.54582841 14.3967298,0 L17.2529539,0 C16.9984389,1.72082785 16.6025266,3.06249024 16.0086582,4.08332032 L13.2938314,4.08332032 Z" id="Path_1_"></path>
                            <path d="M2.66075954,4.08332032 C2.09517061,3.06249024 1.67097892,1.72082785 1.4164639,0 L4.27268799,0 C4.52720301,1.54582841 4.89483581,2.91665737 5.3755864,4.08332032 L2.66075954,4.08332032 Z" id="Path_2_"></path>
                            <path d="M52.0573122,4.37498606 L52.0573122,1.93451764 L60.39993,1.93451764 L60.39993,0 L65.3533593,0 L65.3533593,1.93451764 L73.8118467,1.93451764 L73.8118467,4.37498606 L60.2261254,4.37498606 L60.2261254,9.34520831 L71.8999968,9.34520831 L71.8999968,25.208253 C71.8999968,27.9463395 70.2488537,29.1665737 65.9906426,29.1665737 L62.7173238,29.1665737 L62.7173238,27.083247 C65.8458054,26.8451525 67.3810789,26.1308691 67.3810789,24.9403967 L67.3810789,11.8749622 L60.2261254,11.8749622 C59.6178096,19.5237473 58.690852,25.3570621 53.6794879,29.1665737 C52.0283448,29.1665737 51.1882896,29.1665737 51.1882896,29.1665737 C51.1882896,29.1665737 54.1719341,25.8630128 54.8961197,21.2201705 C55.4754681,19.0773202 55.6782401,14.255907 55.6782401,9.73211184 L55.6782401,4.37498606 L52.0573122,4.37498606 Z" id="Path_3_"></path>
                            <path d="M40.5933621,7.75880597 L40.5933621,5.46100574 L44.0947522,5.46100574 L44.0947522,0 L48.4931926,0 L48.4931926,5.46100574 L51.8498971,5.46100574 L51.8498971,7.75880597 L48.4931926,7.75880597 L48.4931926,19.5163812 C49.7664253,19.188124 51.1264694,18.7703421 52.6022619,18.2630356 C52.6022619,19.5760643 52.6022619,20.2325786 52.6022619,20.2325786 C52.6022619,20.2325786 47.2488969,23.4554673 40.1593055,24.4999219 L40.1593055,20.9189346 C41.635098,20.8294099 42.9372678,20.6802021 44.1236893,20.411628 L44.1236893,7.75880597 L40.5933621,7.75880597 Z" id="Path_4_"></path>
                            <path d="M18.1013373,13.1249582 C14.7653212,11.9616096 12.6659318,9.99286588 11.8606866,7.42753315 L11.4580639,7.42753315 L11.4580639,12.5283692 L7.92073657,12.5283692 L7.92073657,7.42753315 L7.37432015,7.42753315 C6.5690749,9.90337753 4.46968549,11.8422918 1.13366944,13.0056404 L1.13366944,11.1562144 C2.65788367,10.1420131 3.75071651,8.82951732 4.38340921,7.42753315 L1.24870447,7.42753315 L1.24870447,5.10083602 L7.89197781,5.10083602 L7.89197781,0 L11.4293052,0 L11.4293052,5.10083602 L17.6699559,5.10083602 L17.6699559,7.42753315 L14.9666325,7.42753315 C15.4267727,8.74002897 16.462088,10.0525248 18.1013373,11.1562144 L18.1013373,13.1249582 L18.1013373,13.1249582 Z" id="Path_5_"></path>
                            <path d="M22.0988048,0 L26.3838599,0 C26.3838599,0.297618099 26.2113073,1.36904326 26.0387548,1.90475583 L34.6951413,1.90475583 L34.6951413,4.40474787 L32.9120982,4.40474787 C32.9120982,10.0892536 32.8545807,15.1785231 28.8283544,21.6368358 C29.3747708,22.7975464 33.5447909,28.2141958 35.0690051,29.1665737 C33.3434796,29.1665737 32.4807168,29.1665737 32.4807168,29.1665737 C32.4807168,29.1665737 30.7264325,28.4820521 26.5276537,24.0773042 C25.3773033,25.3868239 22.7027387,28.0653868 20.6033493,29.1665737 C18.9641,29.1665737 18.130096,29.1665737 18.130096,29.1665737 C18.130096,29.1665737 23.2779139,24.0773042 24.2557117,21.6368358 C22.5877037,18.8987493 21.0347307,15.8332829 20.2294854,10.8928224 L18.1013373,10.8928224 C21.3223183,6.54759818 21.8112172,2.73808651 22.0988048,0 Z M26.5564124,18.3035131 C28.1956617,15.9820919 29.5760821,10.9225842 29.2597358,4.40474787 C26.4988949,4.40474787 25.1184745,4.40474787 25.1184745,4.40474787 C25.1184745,4.40474787 24.4857818,6.24998008 22.7027387,8.72021031 L23.7380541,8.72021031 C24.1119179,12.7975783 25.2335095,16.0118537 26.5564124,18.3035131 Z" id="Path_6_"></path>
                            <path d="M0.568080509,18.0524582 L0.568080509,15.6156735 L2.60883662,15.6156735 L2.60883662,13.4166239 L6.14423102,13.4166239 L6.14423102,15.6156735 L12.668902,15.6156735 L12.668902,13.4166239 L16.2042964,13.4166239 L16.2042964,15.6156735 L18.1013373,15.6156735 L18.1013373,18.0524582 L16.0605812,18.0524582 C15.8881229,21.2618819 14.7096581,23.9958355 12.5251868,25.5708305 C12.9563324,25.9868669 15.1120607,27.0566748 16.8653864,27.3835605 L16.8653864,29.1665737 C13.991082,29.0477062 11.4904372,28.1859165 9.39219498,26.9675241 C8.04127192,27.7995969 5.22445362,29.0477062 1.17168443,29.1665737 L1.17168443,27.3835605 C3.55735707,26.9675241 5.05199536,26.1651682 6.14423102,25.4519629 C4.04598882,23.7878173 2.92501011,21.1132975 2.75255184,18.0821751 L0.568080509,18.0821751 L0.568080509,18.0524582 Z M9.39219498,23.9066848 C11.375465,22.6288587 12.3527285,20.4298091 12.5251868,18.0524582 L6.2592032,18.0524582 C6.46040451,20.5486767 7.58138322,22.7180094 9.39219498,23.9066848 Z" id="Path_7_"></path>
                        </g>
                        <path d="M47.8997159,16.0663997 C48.8446432,14.6564819 50.3540343,13.903206 51.8922881,13.9035415 C52.8677182,13.9035415 53.8549557,14.2065295 54.7169026,14.8366641 C56.9373671,16.4613243 57.4860875,19.6455508 55.9425859,21.9479915 C55.1400045,23.1451801 53.9287525,23.8575208 52.639112,24.0474335 C51.0188617,24.613481 49.5534207,25.6959167 48.500586,27.2658846 C47.2965498,29.0636808 46.849505,31.1748666 47.0745033,33.2008265 L47.0708955,33.1981422 C47.1427244,34.3137959 46.8865674,35.4566278 46.2273158,36.4407518 C45.2843563,37.8479853 43.7782451,38.6009257 42.2426152,38.60361 L42.2216241,38.60361 C41.2501298,38.6009257 40.2678121,38.2979376 39.409473,37.6704873 C37.1883525,36.0458272 36.6396321,32.8629428 38.1841177,30.55916 C38.8436973,29.5757071 39.7837049,28.9328222 40.8116127,28.6217813 L40.7830779,28.6013136 C42.6840842,28.1288805 44.431265,26.9672585 45.6356292,25.1708045 C46.7048632,23.576007 47.176179,21.7322425 47.1125497,19.921025 C46.8767279,18.6214982 47.1184535,17.232048 47.8997159,16.0663997 Z M57.0193636,32.2589799 C57.0193636,29.4653161 59.2313005,27.2014619 61.9591592,27.2014619 C64.6880018,27.2014619 66.8989547,29.4653161 66.8989547,32.2589799 C66.8989547,35.0516372 64.6880018,37.316498 61.9591592,37.316498 C59.2313005,37.316498 57.0193636,35.0516372 57.0193636,32.2589799 Z M30.1048412,16.0663997 C31.0500965,14.6564819 32.5591596,13.903206 34.0974135,13.9035415 C35.0728435,13.9035415 36.0600811,14.2065295 36.922028,14.8366641 C39.1428205,16.4613243 39.6915409,19.6455508 38.1480393,21.9479915 C37.3454578,23.1451801 36.1338779,23.8575208 34.8445653,24.0474335 C33.224315,24.613481 31.7585461,25.6959167 30.7060393,27.2658846 C29.5020031,29.0636808 29.0546304,31.1748666 29.2793007,33.2008265 L29.2760209,33.1981422 C29.3481777,34.3137959 29.0916928,35.4566278 28.4321131,36.4407518 C27.5012892,37.8298664 26.0220728,38.5760961 24.506778,38.5979059 C24.4677477,38.5989125 24.4290453,38.6009257 24.390015,38.6012612 C24.3513127,38.6009257 24.3126103,38.5989125 24.27358,38.5979059 C22.7586132,38.5760961 21.2787408,37.8298664 20.3482448,36.4407518 C19.6886652,35.4566278 19.4325082,34.3137959 19.5043371,33.1981422 L19.5010573,33.2008265 C19.5725582,32.5542507 19.5122088,31.4117542 19.5000733,31.2490198 C19.4879378,31.0862853 19.5122088,31.0581004 19.5122088,30.9607953 C19.5122088,27.6822835 17.2999439,25.0241757 14.5720853,25.0241757 C11.8445546,25.0241757 9.63261771,27.6822835 9.63261771,30.9607953 C9.63261771,31.3365944 9.67099205,31.7989615 9.68771934,32.0824886 C9.7047746,32.3663511 9.72510973,32.8223431 9.76741991,33.2008265 L9.76381206,33.1981422 C9.83596896,34.3137959 9.57981198,35.4566278 8.92023234,36.4407518 C7.9772729,37.8479853 6.47148966,38.6009257 4.93553172,38.60361 L4.91454063,38.60361 C3.9433744,38.6009257 2.96072866,38.2979376 2.10271756,37.6704873 C0.737640274,36.6719354 0.00393583072,35.0851907 0,33.4752941 L0,33.4471091 C0.00262388715,32.4468795 0.287315643,31.4389326 0.877034279,30.55916 C1.53661391,29.5757071 2.47662148,28.9328222 3.50485726,28.6217813 L3.4759945,28.6013136 C5.37700074,28.1288805 7.12418159,26.9672585 8.32854579,25.1708045 C9.39745182,23.576007 9.86942352,21.7322425 9.80546627,19.921025 C9.56964441,18.6214982 9.81137002,17.232048 10.5926324,16.0663997 C11.5231284,14.6782916 13.0016888,13.932062 14.5156717,13.9092456 C14.55503,13.908239 14.5947163,13.9065613 14.6340746,13.9058902 C14.6737609,13.9065613 14.7131192,13.908239 14.7524775,13.9092456 C16.2664604,13.932062 17.7450208,14.6782916 18.6751888,16.0663997 C19.4571072,17.232048 19.6985048,18.6214982 19.4626829,19.921025 C19.438084,20.6219574 19.4256205,21.1225755 19.5643585,22.0533494 C20.0222269,25.1218164 21.9160174,27.3611765 24.3959187,27.3611765 C26.8909074,27.3611765 28.7856819,25.1815416 29.2009121,21.9885912 C29.3275146,21.0138622 29.341618,20.6024964 29.3176751,19.921025 C29.0818532,18.6214982 29.3235788,17.232048 30.1048412,16.0663997 Z M24.1886317,0.694202293 L24.2929312,0.694202293 C26.9968469,0.723058297 29.180577,2.97684643 29.180577,5.75172032 C29.180577,8.54471309 26.9686401,10.8095739 24.2407814,10.8095739 C21.5129227,10.8095739 19.3009859,8.54471309 19.3009859,5.75172032 C19.3009859,2.97684643 21.4850439,0.723058297 24.1886317,0.694202293 Z" id="Fill-4"></path>
                    </g>
                </g>
            </g>
        </g>
    </g>
</svg>